<mxfile host="app.diagrams.net" modified="2023-10-11T14:17:20.951Z" agent="Mozilla/5.0 (Windows NT 10.0; Win64; x64) AppleWebKit/537.36 (KHTML, like Gecko) Chrome/115.0.0.0 Safari/537.36" version="22.0.4" etag="8OsOdjwwijG017jPo0C5" type="github">
  <diagram name="Trang-1" id="JAGms4RAls8Ao9AI8Xqc">
    <mxGraphModel>
      <root>
        <mxCell id="0" />
        <mxCell id="1" parent="0" />
      </root>
    </mxGraphModel>
  </diagram>
</mxfile>
